<?xml version="1.0" encoding="UTF-8" standalone="no"?>
<svg width="343px" height="34px" viewBox="0 0 343 34" version="1.1" xmlns="http://www.w3.org/2000/svg" xmlns:xlink="http://www.w3.org/1999/xlink">
    <!-- Generator: Sketch 47.1 (45422) - http://www.bohemiancoding.com/sketch -->
    <title>OPEN THE LOCK BEFORE Copy</title>
    <desc>Created with Sketch.</desc>
    <defs></defs>
    <g id="V3" stroke="none" stroke-width="1" fill="none" fill-rule="evenodd">
        <path d="M2.82000248,5.69 C2.82000248,6.14000225 2.87250195,6.57749788 2.97750248,7.0025 C3.082503,7.42750212 3.25000133,7.8099983 3.48000248,8.15 C3.71000363,8.4900017 4.01000063,8.76249897 4.38000248,8.9675 C4.75000433,9.17250102 5.19999983,9.275 5.73000248,9.275 C6.26000513,9.275 6.71000063,9.17250102 7.08000248,8.9675 C7.45000433,8.76249897 7.75000133,8.4900017 7.98000248,8.15 C8.21000363,7.8099983 8.37750195,7.42750212 8.48250248,7.0025 C8.587503,6.57749788 8.64000248,6.14000225 8.64000248,5.69 C8.64000248,5.21999765 8.587503,4.7650022 8.48250248,4.325 C8.37750195,3.8849978 8.21000363,3.49250173 7.98000248,3.1475 C7.75000133,2.80249828 7.45000433,2.52750102 7.08000248,2.3225 C6.71000063,2.11749897 6.26000513,2.015 5.73000248,2.015 C5.19999983,2.015 4.75000433,2.11749897 4.38000248,2.3225 C4.01000063,2.52750102 3.71000363,2.80249828 3.48000248,3.1475 C3.25000133,3.49250173 3.082503,3.8849978 2.97750248,4.325 C2.87250195,4.7650022 2.82000248,5.21999765 2.82000248,5.69 Z M0.46500248,5.69 C0.46500248,4.889996 0.58500128,4.14750343 0.82500248,3.4625 C1.06500368,2.77749657 1.41000023,2.18000255 1.86000248,1.67 C2.31000473,1.15999745 2.8624992,0.76000145 3.51750248,0.47 C4.17250575,0.17999855 4.90999838,0.035 5.73000248,0.035 C6.56000663,0.035 7.29999923,0.17999855 7.95000248,0.47 C8.60000573,0.76000145 9.15000023,1.15999745 9.60000248,1.67 C10.0500047,2.18000255 10.3950013,2.77749657 10.6350025,3.4625 C10.8750037,4.14750343 10.9950025,4.889996 10.9950025,5.69 C10.9950025,6.4700039 10.8750037,7.19749662 10.6350025,7.8725 C10.3950013,8.54750338 10.0500047,9.1349975 9.60000248,9.635 C9.15000023,10.1350025 8.60000573,10.5274986 7.95000248,10.8125 C7.29999923,11.0975014 6.56000663,11.24 5.73000248,11.24 C4.90999838,11.24 4.17250575,11.0975014 3.51750248,10.8125 C2.8624992,10.5274986 2.31000473,10.1350025 1.86000248,9.635 C1.41000023,9.1349975 1.06500368,8.54750338 0.82500248,7.8725 C0.58500128,7.19749662 0.46500248,6.4700039 0.46500248,5.69 Z M19.6550023,5.33 L21.4850023,5.33 C21.7550036,5.33 22.015001,5.3100002 22.2650023,5.27 C22.5150035,5.2299998 22.7350013,5.15250057 22.9250023,5.0375 C23.1150032,4.92249943 23.2675017,4.76000105 23.3825023,4.55 C23.4975029,4.33999895 23.5550023,4.0650017 23.5550023,3.725 C23.5550023,3.3849983 23.4975029,3.11000105 23.3825023,2.9 C23.2675017,2.68999895 23.1150032,2.52750057 22.9250023,2.4125 C22.7350013,2.29749943 22.5150035,2.2200002 22.2650023,2.18 C22.015001,2.1399998 21.7550036,2.12 21.4850023,2.12 L19.6550023,2.12 L19.6550023,5.33 Z M17.3000023,0.29 L22.1300023,0.29 C22.8000056,0.29 23.3699999,0.387499025 23.8400023,0.5825 C24.3100046,0.777500975 24.6925008,1.0349984 24.9875023,1.355 C25.2825038,1.6750016 25.4975016,2.03999795 25.6325023,2.45 C25.767503,2.86000205 25.8350023,3.2849978 25.8350023,3.725 C25.8350023,4.15500215 25.767503,4.57749792 25.6325023,4.9925 C25.4975016,5.40750208 25.2825038,5.7749984 24.9875023,6.095 C24.6925008,6.4150016 24.3100046,6.67249902 23.8400023,6.8675 C23.3699999,7.06250097 22.8000056,7.16 22.1300023,7.16 L19.6550023,7.16 L19.6550023,11 L17.3000023,11 L17.3000023,0.29 Z M32.0050021,0.29 L32.0050021,11 L40.1350021,11 L40.1350021,9.02 L34.3600021,9.02 L34.3600021,6.395 L39.5500021,6.395 L39.5500021,4.565 L34.3600021,4.565 L34.3600021,2.27 L40.0150021,2.27 L40.0150021,0.29 L32.0050021,0.29 Z M46.4250019,0.29 L46.4250019,11 L48.6300019,11 L48.6300019,3.83 L48.6600019,3.83 L53.1150019,11 L55.4700019,11 L55.4700019,0.29 L53.2650019,0.29 L53.2650019,7.475 L53.2350019,7.475 L48.7650019,0.29 L46.4250019,0.29 Z M73.4800015,2.27 L73.4800015,11 L75.8350015,11 L75.8350015,2.27 L79.0450015,2.27 L79.0450015,0.29 L70.2700015,0.29 L70.2700015,2.27 L73.4800015,2.27 Z M84.9750013,0.29 L84.9750013,11 L87.3300013,11 L87.3300013,6.38 L91.6650013,6.38 L91.6650013,11 L94.0200013,11 L94.0200013,0.29 L91.6650013,0.29 L91.6650013,4.4 L87.3300013,4.4 L87.3300013,0.29 L84.9750013,0.29 Z M100.790001,0.29 L100.790001,11 L108.920001,11 L108.920001,9.02 L103.145001,9.02 L103.145001,6.395 L108.335001,6.395 L108.335001,4.565 L103.145001,4.565 L103.145001,2.27 L108.800001,2.27 L108.800001,0.29 L100.790001,0.29 Z M124.080001,0.29 L124.080001,11 L131.655001,11 L131.655001,9.02 L126.435001,9.02 L126.435001,0.29 L124.080001,0.29 Z M139.565001,5.69 C139.565001,6.14000225 139.6175,6.57749788 139.722501,7.0025 C139.827501,7.42750212 139.994999,7.8099983 140.225001,8.15 C140.455002,8.4900017 140.754999,8.76249897 141.125001,8.9675 C141.495002,9.17250102 141.944998,9.275 142.475001,9.275 C143.005003,9.275 143.454999,9.17250102 143.825001,8.9675 C144.195002,8.76249897 144.494999,8.4900017 144.725001,8.15 C144.955002,7.8099983 145.1225,7.42750212 145.227501,7.0025 C145.332501,6.57749788 145.385001,6.14000225 145.385001,5.69 C145.385001,5.21999765 145.332501,4.7650022 145.227501,4.325 C145.1225,3.8849978 144.955002,3.49250173 144.725001,3.1475 C144.494999,2.80249828 144.195002,2.52750102 143.825001,2.3225 C143.454999,2.11749897 143.005003,2.015 142.475001,2.015 C141.944998,2.015 141.495002,2.11749897 141.125001,2.3225 C140.754999,2.52750102 140.455002,2.80249828 140.225001,3.1475 C139.994999,3.49250173 139.827501,3.8849978 139.722501,4.325 C139.6175,4.7650022 139.565001,5.21999765 139.565001,5.69 Z M137.210001,5.69 C137.210001,4.889996 137.329999,4.14750343 137.570001,3.4625 C137.810002,2.77749657 138.154998,2.18000255 138.605001,1.67 C139.055003,1.15999745 139.607497,0.76000145 140.262501,0.47 C140.917504,0.17999855 141.654996,0.035 142.475001,0.035 C143.305005,0.035 144.044997,0.17999855 144.695001,0.47 C145.345004,0.76000145 145.894998,1.15999745 146.345001,1.67 C146.795003,2.18000255 147.139999,2.77749657 147.380001,3.4625 C147.620002,4.14750343 147.740001,4.889996 147.740001,5.69 C147.740001,6.4700039 147.620002,7.19749662 147.380001,7.8725 C147.139999,8.54750338 146.795003,9.1349975 146.345001,9.635 C145.894998,10.1350025 145.345004,10.5274986 144.695001,10.8125 C144.044997,11.0975014 143.305005,11.24 142.475001,11.24 C141.654996,11.24 140.917504,11.0975014 140.262501,10.8125 C139.607497,10.5274986 139.055003,10.1350025 138.605001,9.635 C138.154998,9.1349975 137.810002,8.54750338 137.570001,7.8725 C137.329999,7.19749662 137.210001,6.4700039 137.210001,5.69 Z M161.185,3.89 L163.465,3.89 C163.395,3.2699969 163.225002,2.7200024 162.955,2.24 C162.684999,1.7599976 162.342502,1.35750162 161.9275,1.0325 C161.512498,0.707498375 161.042503,0.46000085 160.5175,0.29 C159.992498,0.11999915 159.435003,0.035 158.845,0.035 C158.024996,0.035 157.287504,0.17999855 156.6325,0.47 C155.977497,0.76000145 155.425003,1.15999745 154.975,1.67 C154.524998,2.18000255 154.180002,2.77749657 153.94,3.4625 C153.699999,4.14750343 153.58,4.889996 153.58,5.69 C153.58,6.4700039 153.699999,7.19749662 153.94,7.8725 C154.180002,8.54750338 154.524998,9.1349975 154.975,9.635 C155.425003,10.1350025 155.977497,10.5274986 156.6325,10.8125 C157.287504,11.0975014 158.024996,11.24 158.845,11.24 C159.505004,11.24 160.109998,11.140001 160.66,10.94 C161.210003,10.739999 161.689998,10.4500019 162.1,10.07 C162.510002,9.6899981 162.839999,9.2300027 163.09,8.69 C163.340002,8.1499973 163.495,7.54500335 163.555,6.875 L161.275,6.875 C161.185,7.5950036 160.937502,8.1749978 160.5325,8.615 C160.127498,9.0550022 159.565004,9.275 158.845,9.275 C158.314998,9.275 157.865002,9.17250102 157.495,8.9675 C157.124999,8.76249897 156.825002,8.4900017 156.595,8.15 C156.364999,7.8099983 156.197501,7.42750212 156.0925,7.0025 C155.9875,6.57749788 155.935,6.14000225 155.935,5.69 C155.935,5.21999765 155.9875,4.7650022 156.0925,4.325 C156.197501,3.8849978 156.364999,3.49250173 156.595,3.1475 C156.825002,2.80249828 157.124999,2.52750102 157.495,2.3225 C157.865002,2.11749897 158.314998,2.015 158.845,2.015 C159.135002,2.015 159.412499,2.06249953 159.6775,2.1575 C159.942502,2.25250047 160.179999,2.38499915 160.39,2.555 C160.600001,2.72500085 160.775,2.92249887 160.915,3.1475 C161.055001,3.37250112 161.145,3.61999865 161.185,3.89 Z M169.86,0.29 L169.86,11 L172.215,11 L172.215,7.55 L173.565,6.185 L176.79,11 L179.745,11 L175.155,4.52 L179.34,0.29 L176.4,0.29 L172.215,4.73 L172.215,0.29 L169.86,0.29 Z M196.615,4.625 L199,4.625 C199.420002,4.625 199.764998,4.525001 200.035,4.325 C200.305001,4.124999 200.44,3.80000225 200.44,3.35 C200.44,3.09999875 200.395,2.8950008 200.305,2.735 C200.214999,2.5749992 200.095001,2.45000045 199.945,2.36 C199.794999,2.26999955 199.622501,2.20750018 199.4275,2.1725 C199.232499,2.13749983 199.030001,2.12 198.82,2.12 L196.615,2.12 L196.615,4.625 Z M194.26,0.29 L199.3,0.29 C199.810002,0.29 200.274998,0.33499955 200.695,0.425 C201.115002,0.51500045 201.474998,0.662498975 201.775,0.8675 C202.075001,1.07250103 202.307499,1.3449983 202.4725,1.685 C202.637501,2.0250017 202.72,2.4449975 202.72,2.945 C202.72,3.4850027 202.597501,3.9349982 202.3525,4.295 C202.107499,4.6550018 201.745002,4.94999885 201.265,5.18 C201.925003,5.37000095 202.417498,5.70249762 202.7425,6.1775 C203.067501,6.65250237 203.23,7.22499665 203.23,7.895 C203.23,8.4350027 203.125001,8.90249802 202.915,9.2975 C202.704999,9.69250198 202.422502,10.0149988 202.0675,10.265 C201.712498,10.5150013 201.307502,10.6999994 200.8525,10.82 C200.397498,10.9400006 199.930002,11 199.45,11 L194.26,11 L194.26,0.29 Z M196.615,9.17 L199.135,9.17 C199.365001,9.17 199.584999,9.14750022 199.795,9.1025 C200.005001,9.05749977 200.189999,8.98250052 200.35,8.8775 C200.510001,8.77249948 200.637499,8.6300009 200.7325,8.45 C200.8275,8.2699991 200.875,8.0400014 200.875,7.76 C200.875,7.20999725 200.720001,6.81750118 200.41,6.5825 C200.099998,6.34749883 199.690002,6.23 199.18,6.23 L196.615,6.23 L196.615,9.17 Z M209.52,0.29 L209.52,11 L217.65,11 L217.65,9.02 L211.875,9.02 L211.875,6.395 L217.065,6.395 L217.065,4.565 L211.875,4.565 L211.875,2.27 L217.53,2.27 L217.53,0.29 L209.52,0.29 Z M223.939999,0.29 L223.939999,11 L226.294999,11 L226.294999,6.575 L230.779999,6.575 L230.779999,4.745 L226.294999,4.745 L226.294999,2.27 L231.469999,2.27 L231.469999,0.29 L223.939999,0.29 Z M239.424999,5.69 C239.424999,6.14000225 239.477499,6.57749788 239.582499,7.0025 C239.6875,7.42750212 239.854998,7.8099983 240.084999,8.15 C240.315,8.4900017 240.614997,8.76249897 240.984999,8.9675 C241.355001,9.17250102 241.804997,9.275 242.334999,9.275 C242.865002,9.275 243.314997,9.17250102 243.684999,8.9675 C244.055001,8.76249897 244.354998,8.4900017 244.584999,8.15 C244.815,7.8099983 244.982499,7.42750212 245.087499,7.0025 C245.1925,6.57749788 245.244999,6.14000225 245.244999,5.69 C245.244999,5.21999765 245.1925,4.7650022 245.087499,4.325 C244.982499,3.8849978 244.815,3.49250173 244.584999,3.1475 C244.354998,2.80249828 244.055001,2.52750102 243.684999,2.3225 C243.314997,2.11749897 242.865002,2.015 242.334999,2.015 C241.804997,2.015 241.355001,2.11749897 240.984999,2.3225 C240.614997,2.52750102 240.315,2.80249828 240.084999,3.1475 C239.854998,3.49250173 239.6875,3.8849978 239.582499,4.325 C239.477499,4.7650022 239.424999,5.21999765 239.424999,5.69 Z M237.069999,5.69 C237.069999,4.889996 237.189998,4.14750343 237.429999,3.4625 C237.67,2.77749657 238.014997,2.18000255 238.464999,1.67 C238.915001,1.15999745 239.467496,0.76000145 240.122499,0.47 C240.777503,0.17999855 241.514995,0.035 242.334999,0.035 C243.165003,0.035 243.904996,0.17999855 244.554999,0.47 C245.205002,0.76000145 245.754997,1.15999745 246.204999,1.67 C246.655001,2.18000255 246.999998,2.77749657 247.239999,3.4625 C247.48,4.14750343 247.599999,4.889996 247.599999,5.69 C247.599999,6.4700039 247.48,7.19749662 247.239999,7.8725 C246.999998,8.54750338 246.655001,9.1349975 246.204999,9.635 C245.754997,10.1350025 245.205002,10.5274986 244.554999,10.8125 C243.904996,11.0975014 243.165003,11.24 242.334999,11.24 C241.514995,11.24 240.777503,11.0975014 240.122499,10.8125 C239.467496,10.5274986 238.915001,10.1350025 238.464999,9.635 C238.014997,9.1349975 237.67,8.54750338 237.429999,7.8725 C237.189998,7.19749662 237.069999,6.4700039 237.069999,5.69 Z M256.259999,5.135 L258.839999,5.135 C259.380002,5.135 259.784998,5.0150012 260.054999,4.775 C260.325,4.5349988 260.459999,4.1450027 260.459999,3.605 C260.459999,3.0849974 260.325,2.70750118 260.054999,2.4725 C259.784998,2.23749882 259.380002,2.12 258.839999,2.12 L256.259999,2.12 L256.259999,5.135 Z M253.904999,0.29 L259.679999,0.29 C260.160001,0.29 260.592497,0.367499225 260.977499,0.5225 C261.362501,0.677500775 261.692498,0.88999865 261.967499,1.16 C262.2425,1.43000135 262.452498,1.74249823 262.597499,2.0975 C262.7425,2.45250177 262.814999,2.83499795 262.814999,3.245 C262.814999,3.87500315 262.6825,4.4199977 262.417499,4.88 C262.152498,5.3400023 261.720002,5.6899988 261.119999,5.93 L261.119999,5.96 C261.41,6.0400004 261.649998,6.16249917 261.839999,6.3275 C262.03,6.49250082 262.184998,6.68749888 262.304999,6.9125 C262.425,7.13750112 262.512499,7.38499865 262.567499,7.655 C262.622499,7.92500135 262.659999,8.19499865 262.679999,8.465 C262.689999,8.63500085 262.699999,8.83499885 262.709999,9.065 C262.719999,9.29500115 262.737499,9.5299988 262.762499,9.77 C262.787499,10.0100012 262.827499,10.2374989 262.882499,10.4525 C262.937499,10.6675011 263.019998,10.8499992 263.129999,11 L260.774999,11 C260.644998,10.6599983 260.564999,10.2550023 260.534999,9.785 C260.504999,9.31499765 260.459999,8.86500215 260.399999,8.435 C260.319999,7.8749972 260.15,7.4650013 259.889999,7.205 C259.629998,6.9449987 259.205002,6.815 258.614999,6.815 L256.259999,6.815 L256.259999,11 L253.904999,11 L253.904999,0.29 Z M269.434999,0.29 L269.434999,11 L277.564999,11 L277.564999,9.02 L271.789999,9.02 L271.789999,6.395 L276.979999,6.395 L276.979999,4.565 L271.789999,4.565 L271.789999,2.27 L277.444999,2.27 L277.444999,0.29 L269.434999,0.29 Z M295.094998,2.27 L295.094998,11 L297.449998,11 L297.449998,2.27 L300.659998,2.27 L300.659998,0.29 L291.884998,0.29 L291.884998,2.27 L295.094998,2.27 Z M306.589998,0.29 L306.589998,11 L308.944998,11 L308.944998,0.29 L306.589998,0.29 Z M315.714998,0.29 L315.714998,11 L317.919998,11 L317.919998,3.485 L317.949998,3.485 L320.574998,11 L322.389998,11 L325.014998,3.41 L325.044998,3.41 L325.044998,11 L327.249998,11 L327.249998,0.29 L323.934998,0.29 L321.564998,7.655 L321.534998,7.655 L319.029998,0.29 L315.714998,0.29 Z M334.019998,0.29 L334.019998,11 L342.149998,11 L342.149998,9.02 L336.374998,9.02 L336.374998,6.395 L341.564998,6.395 L341.564998,4.565 L336.374998,4.565 L336.374998,2.27 L342.029998,2.27 L342.029998,0.29 L334.019998,0.29 Z M123.482501,27.135 L126.062501,27.135 C126.602503,27.135 127.007499,27.0150012 127.277501,26.775 C127.547502,26.5349988 127.682501,26.1450027 127.682501,25.605 C127.682501,25.0849974 127.547502,24.7075012 127.277501,24.4725 C127.007499,24.2374988 126.602503,24.12 126.062501,24.12 L123.482501,24.12 L123.482501,27.135 Z M121.127501,22.29 L126.902501,22.29 C127.382503,22.29 127.814999,22.3674992 128.200001,22.5225 C128.585003,22.6775008 128.914999,22.8899986 129.190001,23.16 C129.465002,23.4300013 129.675,23.7424982 129.820001,24.0975 C129.965001,24.4525018 130.037501,24.834998 130.037501,25.245 C130.037501,25.8750031 129.905002,26.4199977 129.640001,26.88 C129.374999,27.3400023 128.942504,27.6899988 128.342501,27.93 L128.342501,27.96 C128.632502,28.0400004 128.8725,28.1624992 129.062501,28.3275 C129.252502,28.4925008 129.4075,28.6874989 129.527501,28.9125 C129.647501,29.1375011 129.735,29.3849986 129.790001,29.655 C129.845001,29.9250014 129.882501,30.1949987 129.902501,30.465 C129.912501,30.6350008 129.922501,30.8349988 129.932501,31.065 C129.942501,31.2950012 129.960001,31.5299988 129.985001,31.77 C130.010001,32.0100012 130.05,32.2374989 130.105001,32.4525 C130.160001,32.6675011 130.2425,32.8499992 130.352501,33 L127.997501,33 C127.8675,32.6599983 127.787501,32.2550023 127.757501,31.785 C127.727501,31.3149977 127.682501,30.8650022 127.622501,30.435 C127.5425,29.8749972 127.372502,29.4650013 127.112501,29.205 C126.852499,28.9449987 126.427504,28.815 125.837501,28.815 L123.482501,28.815 L123.482501,33 L121.127501,33 L121.127501,22.29 Z M145.7475,28.95 L145.7475,22.29 L143.3925,22.29 L143.3925,28.95 C143.3925,29.750004 143.232502,30.3374981 142.9125,30.7125 C142.592499,31.0875019 142.012505,31.275 141.1725,31.275 C140.692498,31.275 140.310002,31.2075007 140.025,31.0725 C139.739999,30.9374993 139.517501,30.7625011 139.3575,30.5475 C139.1975,30.3324989 139.092501,30.0850014 139.0425,29.805 C138.9925,29.5249986 138.9675,29.2400015 138.9675,28.95 L138.9675,22.29 L136.6125,22.29 L136.6125,28.95 C136.6125,30.4100073 137.009997,31.4899965 137.805,32.19 C138.600004,32.8900035 139.722493,33.24 141.1725,33.24 C142.602508,33.24 143.722496,32.8875035 144.5325,32.1825 C145.342505,31.4774965 145.7475,30.4000072 145.7475,28.95 Z M152.4725,22.29 L152.4725,33 L154.6775,33 L154.6775,25.83 L154.7075,25.83 L159.1625,33 L161.5175,33 L161.5175,22.29 L159.3125,22.29 L159.3125,29.475 L159.2825,29.475 L154.8125,22.29 L152.4725,22.29 Z M169.8925,29.445 L167.6125,29.445 C167.6025,30.1050033 167.722499,30.6749976 167.9725,31.155 C168.222501,31.6350024 168.559998,32.0299984 168.985,32.34 C169.410002,32.6500016 169.899997,32.8774993 170.455,33.0225 C171.010003,33.1675007 171.582497,33.24 172.1725,33.24 C172.902504,33.24 173.544997,33.1550009 174.1,32.985 C174.655003,32.8149992 175.119998,32.5775015 175.495,32.2725 C175.870002,31.9674985 176.152499,31.6050021 176.3425,31.185 C176.532501,30.7649979 176.6275,30.3100025 176.6275,29.82 C176.6275,29.219997 176.500001,28.7275019 176.245,28.3425 C175.989999,27.9574981 175.687502,27.6500011 175.3375,27.42 C174.987498,27.1899988 174.635002,27.0225005 174.28,26.9175 C173.924998,26.8124995 173.647501,26.7400002 173.4475,26.7 C172.777497,26.5299991 172.235002,26.3900005 171.82,26.28 C171.404998,26.1699994 171.080001,26.0600005 170.845,25.95 C170.609999,25.8399994 170.4525,25.7200006 170.3725,25.59 C170.2925,25.4599993 170.2525,25.2900011 170.2525,25.08 C170.2525,24.8499989 170.3025,24.6600007 170.4025,24.51 C170.502501,24.3599992 170.629999,24.2350005 170.785,24.135 C170.940001,24.0349995 171.112499,23.9650002 171.3025,23.925 C171.492501,23.8849998 171.682499,23.865 171.8725,23.865 C172.162502,23.865 172.429999,23.8899998 172.675,23.94 C172.920001,23.9900002 173.137499,24.0749994 173.3275,24.195 C173.517501,24.3150006 173.67,24.4799989 173.785,24.69 C173.900001,24.9000011 173.9675,25.1649984 173.9875,25.485 L176.2675,25.485 C176.2675,24.8649969 176.150001,24.3375022 175.915,23.9025 C175.679999,23.4674978 175.362502,23.1100014 174.9625,22.83 C174.562498,22.5499986 174.105003,22.3475006 173.59,22.2225 C173.074998,22.0974994 172.537503,22.035 171.9775,22.035 C171.497498,22.035 171.017502,22.0999994 170.5375,22.23 C170.057498,22.3600007 169.627502,22.5599987 169.2475,22.83 C168.867498,23.1000014 168.560001,23.437498 168.325,23.8425 C168.089999,24.247502 167.9725,24.7249973 167.9725,25.275 C167.9725,25.7650024 168.064999,26.1824983 168.25,26.5275 C168.435001,26.8725017 168.677499,27.1599989 168.9775,27.39 C169.277502,27.6200012 169.617498,27.8074993 169.9975,27.9525 C170.377502,28.0975007 170.767498,28.2199995 171.1675,28.32 C171.557502,28.4300005 171.942498,28.5299996 172.3225,28.62 C172.702502,28.7100004 173.042499,28.8149994 173.3425,28.935 C173.642502,29.0550006 173.884999,29.2049991 174.07,29.385 C174.255001,29.5650009 174.3475,29.7999985 174.3475,30.09 C174.3475,30.3600014 174.277501,30.5824991 174.1375,30.7575 C173.997499,30.9325009 173.822501,31.0699995 173.6125,31.17 C173.402499,31.2700005 173.177501,31.3374998 172.9375,31.3725 C172.697499,31.4075002 172.472501,31.425 172.2625,31.425 C171.952499,31.425 171.652502,31.3875004 171.3625,31.3125 C171.072499,31.2374996 170.820001,31.1225008 170.605,30.9675 C170.389999,30.8124992 170.217501,30.6100012 170.0875,30.36 C169.957499,30.1099987 169.8925,29.8050018 169.8925,29.445 Z M193.4825,27.69 C193.4825,28.1400023 193.534999,28.5774979 193.64,29.0025 C193.745,29.4275021 193.912499,29.8099983 194.1425,30.15 C194.372501,30.4900017 194.672498,30.762499 195.0425,30.9675 C195.412502,31.172501 195.862497,31.275 196.3925,31.275 C196.922502,31.275 197.372498,31.172501 197.7425,30.9675 C198.112502,30.762499 198.412499,30.4900017 198.6425,30.15 C198.872501,29.8099983 199.039999,29.4275021 199.145,29.0025 C199.25,28.5774979 199.3025,28.1400023 199.3025,27.69 C199.3025,27.2199976 199.25,26.7650022 199.145,26.325 C199.039999,25.8849978 198.872501,25.4925017 198.6425,25.1475 C198.412499,24.8024983 198.112502,24.527501 197.7425,24.3225 C197.372498,24.117499 196.922502,24.015 196.3925,24.015 C195.862497,24.015 195.412502,24.117499 195.0425,24.3225 C194.672498,24.527501 194.372501,24.8024983 194.1425,25.1475 C193.912499,25.4925017 193.745,25.8849978 193.64,26.325 C193.534999,26.7650022 193.4825,27.2199976 193.4825,27.69 Z M191.1275,27.69 C191.1275,26.889996 191.247499,26.1475034 191.4875,25.4625 C191.727501,24.7774966 192.072497,24.1800025 192.5225,23.67 C192.972502,23.1599974 193.524996,22.7600015 194.18,22.47 C194.835003,22.1799985 195.572496,22.035 196.3925,22.035 C197.222504,22.035 197.962496,22.1799985 198.6125,22.47 C199.262503,22.7600015 199.812497,23.1599974 200.2625,23.67 C200.712502,24.1800025 201.057499,24.7774966 201.2975,25.4625 C201.537501,26.1475034 201.6575,26.889996 201.6575,27.69 C201.6575,28.4700039 201.537501,29.1974966 201.2975,29.8725 C201.057499,30.5475034 200.712502,31.1349975 200.2625,31.635 C199.812497,32.1350025 199.262503,32.5274986 198.6125,32.8125 C197.962496,33.0975014 197.222504,33.24 196.3925,33.24 C195.572496,33.24 194.835003,33.0975014 194.18,32.8125 C193.524996,32.5274986 192.972502,32.1350025 192.5225,31.635 C192.072497,31.1349975 191.727501,30.5475034 191.4875,29.8725 C191.247499,29.1974966 191.1275,28.4700039 191.1275,27.69 Z M217.0525,28.95 L217.0525,22.29 L214.6975,22.29 L214.6975,28.95 C214.6975,29.750004 214.537501,30.3374981 214.2175,30.7125 C213.897498,31.0875019 213.317504,31.275 212.4775,31.275 C211.997497,31.275 211.615001,31.2075007 211.33,31.0725 C211.044998,30.9374993 210.8225,30.7625011 210.6625,30.5475 C210.502499,30.3324989 210.3975,30.0850014 210.3475,29.805 C210.297499,29.5249986 210.2725,29.2400015 210.2725,28.95 L210.2725,22.29 L207.9175,22.29 L207.9175,28.95 C207.9175,30.4100073 208.314996,31.4899965 209.11,32.19 C209.905003,32.8900035 211.027492,33.24 212.4775,33.24 C213.907507,33.24 215.027495,32.8875035 215.8375,32.1825 C216.647504,31.4774965 217.0525,30.4000072 217.0525,28.95 Z M226.147499,24.27 L226.147499,33 L228.502499,33 L228.502499,24.27 L231.712499,24.27 L231.712499,22.29 L222.937499,22.29 L222.937499,24.27 L226.147499,24.27 Z" id="OPEN-THE-LOCK-BEFORE-Copy" fill="#FFFFFF"></path>
    </g>
</svg>