<?xml version="1.0" encoding="UTF-8" standalone="no"?>
<svg width="160px" height="37px" viewBox="0 0 160 37" version="1.1" xmlns="http://www.w3.org/2000/svg" xmlns:xlink="http://www.w3.org/1999/xlink">
    <!-- Generator: Sketch 47.1 (45422) - http://www.bohemiancoding.com/sketch -->
    <title>Group 2 Copy</title>
    <desc>Created with Sketch.</desc>
    <defs>
        <rect id="path-1" x="0" y="0" width="160" height="37"></rect>
    </defs>
    <g id="V3" stroke="none" stroke-width="1" fill="none" fill-rule="evenodd">
        <g id="Group-2-Copy">
            <g id="Rectangle">
                <use fill-opacity="0.239951313" fill="#000000" fill-rule="evenodd" xlink:href="#path-1"></use>
                <rect stroke="#FFFFFF" stroke-width="1" x="0.5" y="0.5" width="159" height="36"></rect>
            </g>
            <path d="M36.099,14.524 L36.099,25 L38.925,25 L38.925,14.524 L42.777,14.524 L42.777,12.148 L32.247,12.148 L32.247,14.524 L36.099,14.524 Z M47.079,17.962 L50.175,17.962 C50.8230032,17.962 51.3089984,17.8180014 51.633,17.53 C51.9570016,17.2419986 52.119,16.7740032 52.119,16.126 C52.119,15.5019969 51.9570016,15.0490014 51.633,14.767 C51.3089984,14.4849986 50.8230032,14.344 50.175,14.344 L47.079,14.344 L47.079,17.962 Z M44.253,12.148 L51.183,12.148 C51.7590029,12.148 52.2779977,12.2409991 52.74,12.427 C53.2020023,12.6130009 53.5979984,12.8679984 53.928,13.192 C54.2580017,13.5160016 54.5099991,13.8909979 54.684,14.317 C54.8580009,14.7430021 54.945,15.2019975 54.945,15.694 C54.945,16.4500038 54.7860016,17.1039972 54.468,17.656 C54.1499984,18.2080028 53.6310036,18.6279986 52.911,18.916 L52.911,18.952 C53.2590017,19.0480005 53.5469989,19.194999 53.775,19.393 C54.0030011,19.591001 54.1889993,19.8249986 54.333,20.095 C54.4770007,20.3650014 54.5819997,20.6619984 54.648,20.986 C54.7140003,21.3100016 54.7589999,21.6339984 54.783,21.958 C54.7950001,22.162001 54.8069999,22.4019986 54.819,22.678 C54.8310001,22.9540014 54.8519998,23.2359986 54.882,23.524 C54.9120002,23.8120014 54.9599997,24.0849987 55.026,24.343 C55.0920003,24.6010013 55.1909993,24.8199991 55.323,25 L52.497,25 C52.3409992,24.591998 52.2450002,24.1060028 52.209,23.542 C52.1729998,22.9779972 52.1190004,22.4380026 52.047,21.922 C51.9509995,21.2499966 51.7470016,20.7580016 51.435,20.446 C51.1229984,20.1339984 50.6130035,19.978 49.905,19.978 L47.079,19.978 L47.079,25 L44.253,25 L44.253,12.148 Z M60.579,19.996 L60.579,25 L63.405,25 L63.405,20.068 L68.175,12.148 L65.025,12.148 L62.037,17.224 L59.031,12.148 L55.863,12.148 L60.579,19.996 Z M77.499,20.032 L80.829,20.032 L79.209,15.316 L79.173,15.316 L77.499,20.032 Z M77.769,12.148 L80.667,12.148 L85.473,25 L82.539,25 L81.567,22.138 L76.761,22.138 L75.753,25 L72.909,25 L77.769,12.148 Z M95.877,23.542 L96.165,25 L97.965,25 L97.965,18.052 L92.565,18.052 L92.565,20.158 L95.409,20.158 C95.3249996,21.0580045 95.0280025,21.7449976 94.518,22.219 C94.0079975,22.6930024 93.2850047,22.93 92.349,22.93 C91.7129968,22.93 91.1730022,22.8070012 90.729,22.561 C90.2849978,22.3149988 89.9250014,21.988002 89.649,21.58 C89.3729986,21.171998 89.1720006,20.7130025 89.046,20.203 C88.9199994,19.6929975 88.857,19.1680027 88.857,18.628 C88.857,18.0639972 88.9199994,17.5180026 89.046,16.99 C89.1720006,16.4619974 89.3729986,15.9910021 89.649,15.577 C89.9250014,15.1629979 90.2849978,14.8330012 90.729,14.587 C91.1730022,14.3409988 91.7129968,14.218 92.349,14.218 C93.0330034,14.218 93.6149976,14.3979982 94.095,14.758 C94.5750024,15.1180018 94.8989992,15.6579964 95.067,16.378 L97.767,16.378 C97.6949996,15.6459963 97.4970016,14.9980028 97.173,14.434 C96.8489984,13.8699972 96.4380025,13.3960019 95.94,13.012 C95.4419975,12.6279981 94.8840031,12.337001 94.266,12.139 C93.6479969,11.940999 93.0090033,11.842 92.349,11.842 C91.3649951,11.842 90.4800039,12.0159983 89.694,12.364 C88.9079961,12.7120017 88.2450027,13.1919969 87.705,13.804 C87.1649973,14.4160031 86.7510014,15.1329959 86.463,15.955 C86.1749986,16.7770041 86.031,17.6679952 86.031,18.628 C86.031,19.5640047 86.1749986,20.436996 86.463,21.247 C86.7510014,22.057004 87.1649973,22.761997 87.705,23.362 C88.2450027,23.962003 88.9079961,24.4329983 89.694,24.775 C90.4800039,25.1170017 91.3649951,25.288 92.349,25.288 C92.9730031,25.288 93.5909969,25.1590013 94.203,24.901 C94.8150031,24.6429987 95.3729975,24.1900032 95.877,23.542 Z M103.491,20.032 L106.821,20.032 L105.201,15.316 L105.165,15.316 L103.491,20.032 Z M103.761,12.148 L106.659,12.148 L111.465,25 L108.531,25 L107.559,22.138 L102.753,22.138 L101.745,25 L98.901,25 L103.761,12.148 Z M112.581,12.148 L112.581,25 L115.407,25 L115.407,12.148 L112.581,12.148 Z M117.891,12.148 L117.891,25 L120.537,25 L120.537,16.396 L120.573,16.396 L125.919,25 L128.745,25 L128.745,12.148 L126.099,12.148 L126.099,20.77 L126.063,20.77 L120.699,12.148 L117.891,12.148 Z" id="TRY-AGAIN" fill="#FFFFFF"></path>
        </g>
    </g>
</svg>